<?xml version="1.0" encoding="UTF-8" standalone="no"?><svg xmlns="http://www.w3.org/2000/svg" xmlns:xlink="http://www.w3.org/1999/xlink" fill="#000000" height="467.9" preserveAspectRatio="xMidYMid meet" version="1" viewBox="0.0 0.0 718.5 467.9" width="718.5" zoomAndPan="magnify"><defs><clipPath id="a"><path d="M 0 0 L 718.53125 0 L 718.53125 467.898438 L 0 467.898438 Z M 0 0"/></clipPath><clipPath id="b"><path d="M 170 254 L 227.582031 254 L 227.582031 314.320312 L 170 314.320312 Z M 170 254"/></clipPath><clipPath id="c"><path d="M 113.789062 157.160156 L 227.582031 157.160156 L 227.582031 314.320312 L 113.789062 314.320312 Z M 113.789062 157.160156"/></clipPath></defs><g><g clip-path="url(#a)" id="change1_2"><path d="M 0 467.898438 L 718.527344 467.898438 L 718.527344 0 L 0 0 Z M 0 467.898438" fill="#21005b" fill-rule="evenodd"/></g><g id="change2_1"><path d="M 255.480469 287.625 L 255.480469 216.816406 C 255.480469 216.488281 255.746094 216.179688 256.121094 216.179688 L 269.71875 216.179688 C 270.113281 216.179688 270.359375 216.507812 270.359375 216.816406 L 270.359375 242.335938 L 270.566406 242.335938 C 274.167969 237.804688 279.601562 235.742188 285.574219 235.742188 C 296.285156 235.742188 299.707031 242.746094 299.707031 252.015625 L 299.707031 287.625 C 299.707031 287.917969 299.464844 288.261719 299.066406 288.261719 L 285.472656 288.261719 C 285.105469 288.261719 284.832031 287.953125 284.832031 287.625 L 284.832031 253.320312 C 284.832031 249.304688 280.632812 248.066406 277.957031 248.066406 C 275.277344 248.066406 270.359375 249.820312 270.359375 254.863281 L 270.359375 287.625 C 270.359375 287.886719 270.148438 288.261719 269.714844 288.261719 L 256.121094 288.261719 C 255.824219 288.261719 255.480469 288.019531 255.480469 287.625" fill="#ffffff" fill-rule="evenodd"/></g><g id="change2_2"><path d="M 364.046875 273.640625 L 364.046875 249.234375 L 357.785156 249.234375 C 357.40625 249.234375 357.144531 248.917969 357.144531 248.59375 L 357.144531 239.828125 C 357.144531 239.527344 357.375 239.28125 357.589844 239.21875 C 357.808594 239.152344 365.882812 236.773438 365.882812 236.773438 C 365.882812 236.773438 370.273438 223 370.339844 222.792969 C 370.402344 222.585938 370.632812 222.355469 370.949219 222.355469 L 378.28125 222.355469 C 378.605469 222.355469 378.921875 222.605469 378.921875 223 L 378.921875 236.773438 L 389.917969 236.773438 C 390.203125 236.773438 390.558594 237 390.558594 237.414062 L 390.558594 248.597656 C 390.558594 249.003906 390.222656 249.234375 389.917969 249.234375 L 378.921875 249.234375 L 378.921875 272.097656 C 378.921875 274.464844 380.261719 275.90625 383.554688 275.90625 L 389.917969 275.90625 C 390.347656 275.90625 390.558594 276.277344 390.558594 276.550781 L 390.558594 286.378906 C 390.558594 286.734375 390.269531 286.929688 390.128906 286.984375 C 386.28125 288.429688 384.113281 289.292969 379.640625 289.292969 C 368.546875 289.292969 364.046875 282.804688 364.046875 273.640625" fill="#ffffff" fill-rule="evenodd"/></g><g id="change2_3"><path d="M 576.957031 273.640625 L 576.957031 249.234375 L 570.699219 249.234375 C 570.316406 249.234375 570.058594 248.917969 570.058594 248.59375 L 570.058594 239.828125 C 570.058594 239.527344 570.285156 239.28125 570.503906 239.21875 C 570.71875 239.152344 578.796875 236.773438 578.796875 236.773438 C 578.796875 236.773438 583.1875 223 583.25 222.792969 C 583.316406 222.585938 583.546875 222.355469 583.859375 222.355469 L 591.195312 222.355469 C 591.519531 222.355469 591.832031 222.605469 591.832031 223 L 591.832031 236.773438 L 602.832031 236.773438 C 603.113281 236.773438 603.472656 237 603.472656 237.414062 L 603.472656 248.597656 C 603.472656 249.003906 603.132812 249.234375 602.832031 249.234375 L 591.832031 249.234375 L 591.832031 272.097656 C 591.832031 274.464844 593.171875 275.90625 596.46875 275.90625 L 602.832031 275.90625 C 603.257812 275.90625 603.472656 276.277344 603.472656 276.550781 L 603.472656 286.378906 C 603.472656 286.734375 603.183594 286.929688 603.042969 286.984375 C 599.195312 288.429688 597.023438 289.292969 592.554688 289.292969 C 581.460938 289.292969 576.957031 282.804688 576.957031 273.640625" fill="#ffffff" fill-rule="evenodd"/></g><g id="change2_4"><path d="M 399.5 287.625 L 399.5 237.414062 C 399.5 237.050781 399.796875 236.777344 400.140625 236.777344 L 412.425781 236.777344 C 412.730469 236.777344 412.976562 237.003906 413.035156 237.222656 C 413.09375 237.441406 414.457031 242.335938 414.457031 242.335938 L 414.660156 242.335938 C 418.265625 237.804688 423.621094 235.742188 429.589844 235.742188 C 436.902344 235.742188 440.429688 239.039062 442.386719 244.085938 L 442.796875 244.085938 C 446.503906 237.910156 452.96875 235.742188 458.941406 235.742188 C 469.648438 235.742188 473.070312 242.746094 473.070312 252.015625 L 473.070312 287.625 C 473.070312 288 472.753906 288.265625 472.433594 288.265625 L 458.753906 288.265625 C 458.347656 288.265625 458.117188 287.90625 458.117188 287.625 L 458.117188 253.558594 C 458.117188 249.542969 454.316406 247.988281 451.640625 247.988281 C 448.53125 247.988281 443.929688 249.957031 443.722656 254.488281 L 443.722656 287.625 C 443.722656 287.941406 443.488281 288.265625 443.082031 288.265625 L 429.398438 288.265625 C 429.046875 288.265625 428.765625 287.957031 428.765625 287.625 L 428.765625 253.558594 C 428.765625 249.542969 424.738281 247.988281 421.8125 247.988281 C 419.136719 247.988281 414.375 250.058594 414.375 255.105469 L 414.375 287.625 C 414.375 287.910156 414.144531 288.265625 413.742188 288.265625 L 400.136719 288.265625 C 399.734375 288.265625 399.5 287.917969 399.5 287.625" fill="#ffffff" fill-rule="evenodd"/></g><g id="change2_5"><path d="M 482.125 248.089844 L 482.125 238.742188 C 482.125 238.410156 482.398438 238.160156 482.640625 238.113281 C 489.753906 236.726562 496.304688 235.742188 502.539062 235.742188 C 515.71875 235.742188 523.441406 238.9375 523.441406 253.148438 L 523.441406 287.625 C 523.441406 288 523.125 288.265625 522.800781 288.265625 L 509.796875 288.265625 C 509.46875 288.253906 509.25 288.050781 509.179688 287.789062 C 509.105469 287.527344 507.765625 282.703125 507.765625 282.703125 L 508.359375 282.703125 C 504.652344 287.851562 499.734375 289.292969 493.761719 289.292969 C 484.082031 289.292969 478.929688 281.777344 478.929688 272.921875 C 478.929688 259.53125 488.714844 256.855469 496.023438 256.855469 L 508.566406 256.855469 L 508.566406 253.46875 C 508.566406 249.207031 505.425781 248.332031 493.476562 248.332031 C 488.433594 248.332031 483.050781 248.730469 482.769531 248.730469 C 482.453125 248.730469 482.125 248.457031 482.125 248.089844 Z M 508.566406 266.019531 L 500.394531 266.019531 C 496.054688 266.019531 493.246094 267.683594 493.246094 272.277344 C 493.246094 277.257812 496.820312 278.40625 500.265625 278.40625 C 503.460938 278.40625 508.566406 276.492188 508.566406 270.109375 L 508.566406 266.019531" fill="#ffffff" fill-rule="evenodd"/></g><g id="change2_6"><path d="M 532.125 287.625 L 532.125 237.414062 C 532.125 237.0625 532.425781 236.777344 532.761719 236.777344 L 544.921875 236.777344 C 545.261719 236.777344 545.5 237.019531 545.554688 237.304688 C 545.605469 237.585938 547 245.117188 547 245.117188 L 547.207031 245.117188 C 550.480469 238.367188 557.269531 235.921875 563.105469 235.753906 C 563.425781 235.742188 563.761719 235.996094 563.761719 236.394531 L 563.761719 250.394531 C 563.761719 250.785156 563.429688 251.042969 563.121094 251.042969 L 559.644531 251.042969 C 550.273438 251.042969 547 254.796875 547 259.429688 L 547 287.625 C 547 288.035156 546.648438 288.265625 546.363281 288.265625 L 532.765625 288.265625 C 532.414062 288.265625 532.125 287.96875 532.125 287.625" fill="#ffffff" fill-rule="evenodd"/></g><g id="change2_7"><path d="M 306.0625 262.519531 C 306.0625 246.144531 312.460938 235.742188 330.585938 235.742188 C 348.8125 235.742188 355.210938 246.144531 355.210938 262.519531 C 355.210938 278.996094 348.8125 289.292969 330.585938 289.292969 C 312.460938 289.292969 306.0625 278.996094 306.0625 262.519531 Z M 322.164062 262.519531 C 322.164062 271.375 323.472656 276.808594 330.585938 276.808594 C 337.796875 276.808594 339.109375 271.375 339.109375 262.519531 C 339.109375 253.664062 337.796875 248.308594 330.585938 248.308594 C 323.472656 248.308594 322.164062 253.664062 322.164062 262.519531" fill="#ffffff" fill-rule="evenodd"/></g><g clip-path="url(#b)" id="change1_1"><path d="M 170.667969 314.320312 C 170.585938 314.320312 170.503906 314.320312 170.421875 314.320312 L 170.914062 314.320312 C 170.832031 314.320312 170.753906 314.320312 170.667969 314.320312 M 227.582031 255 L 227.582031 254.210938 C 227.582031 254.328125 227.582031 254.445312 227.582031 254.5625 L 227.582031 254.652344 C 227.582031 254.769531 227.582031 254.886719 227.582031 255" fill="#21005b"/></g><g clip-path="url(#c)" id="change2_8"><path d="M 170.914062 314.320312 L 170.421875 314.320312 C 170.347656 314.320312 170.269531 314.320312 170.191406 314.320312 C 138.785156 314.0625 113.535156 288.390625 113.792969 256.988281 C 113.800781 256.222656 113.832031 255.464844 113.871094 254.707031 C 113.902344 254.074219 113.945312 253.441406 113.996094 252.808594 L 113.996094 252.804688 C 114.113281 251.351562 114.347656 249.414062 114.339844 249.414062 C 114.339844 249.414062 114.335938 249.4375 114.328125 249.484375 C 116.480469 228.789062 127.8125 206.519531 140.328125 193.4375 C 140.414062 193.351562 140.519531 193.308594 140.621094 193.308594 C 140.863281 193.308594 141.082031 193.53125 140.929688 193.859375 C 139.398438 197.148438 136.210938 206.59375 140.636719 206.890625 C 140.710938 206.894531 140.78125 206.898438 140.847656 206.898438 C 142.195312 206.898438 142.914062 205.988281 143.738281 204.324219 C 148.914062 193.871094 153.765625 165.21875 178.078125 157.195312 C 178.148438 157.171875 178.21875 157.160156 178.289062 157.160156 L 178.304688 157.160156 C 178.609375 157.164062 178.859375 157.386719 178.585938 157.820312 C 174.097656 165.019531 171.589844 176.546875 178.195312 187.324219 C 180.882812 191.710938 183.644531 193.363281 185.84375 193.363281 C 186.886719 193.363281 187.804688 192.992188 188.53125 192.359375 C 191.328125 189.910156 190.609375 182.726562 189.398438 180.421875 C 189.25 180.132812 189.460938 179.878906 189.722656 179.878906 C 189.808594 179.878906 189.894531 179.90625 189.980469 179.960938 C 207.652344 191.910156 199.324219 209.132812 207.371094 209.671875 C 207.5 209.679688 207.628906 209.683594 207.75 209.683594 C 211.902344 209.683594 211.703125 204.734375 210.941406 201.957031 C 210.871094 201.648438 211.035156 201.457031 211.246094 201.457031 C 211.386719 201.457031 211.546875 201.542969 211.671875 201.738281 C 222.570312 219.113281 227.492188 240.082031 227.582031 254.210938 L 227.582031 255 C 227.574219 255.832031 227.554688 256.636719 227.511719 257.414062 C 227.511719 257.585938 227.523438 257.753906 227.523438 257.925781 C 227.265625 289.089844 201.988281 314.1875 170.914062 314.320312 M 170.652344 231.078125 C 156.1875 231.078125 144.402344 242.746094 144.285156 257.238281 C 144.164062 271.804688 155.875 283.710938 170.441406 283.832031 C 170.515625 283.832031 170.589844 283.832031 170.664062 283.832031 C 185.128906 283.832031 196.914062 272.164062 197.035156 257.671875 C 197.152344 243.105469 185.441406 231.199219 170.875 231.078125 C 170.800781 231.078125 170.726562 231.078125 170.652344 231.078125" fill="#ffffff"/></g></g></svg>